<svg version="1.1" id="Layer_1" xmlns="http://www.w3.org/2000/svg" xmlns:xlink="http://www.w3.org/1999/xlink" x="0px" y="0px"
	 width="100%" viewBox="0 0 500 500" enable-background="new 0 0 500 500" xml:space="preserve">
<path fill="#000000" opacity="1.000000" stroke="none" 
	d="
M248.000000,501.000000 
	C165.333359,501.000000 83.166702,501.000000 1.000044,501.000000 
	C1.000029,334.333405 1.000029,167.666779 1.000015,1.000134 
	C167.666565,1.000089 334.333130,1.000089 500.999756,1.000045 
	C500.999847,167.666519 500.999847,334.333038 500.999939,500.999786 
	C416.833344,501.000000 332.666656,501.000000 248.000000,501.000000 
M137.000000,189.000000 
	C137.000000,189.000000 137.009338,188.989868 136.952286,188.289612 
	C135.629410,186.199127 134.306549,184.108658 133.000336,181.999664 
	C133.000336,181.999664 132.979782,182.013306 132.974274,181.272415 
	C130.026901,176.068069 127.214378,170.781067 124.090546,165.684891 
	C121.476143,161.419785 117.533195,159.713242 112.412025,159.937698 
	C105.619225,160.235397 98.800652,160.097305 91.997620,159.946152 
	C88.544533,159.869431 86.175453,160.773972 84.353210,164.077927 
	C79.144447,173.522095 73.519310,182.735764 68.145454,192.090363 
	C66.889542,194.276611 65.980148,196.661942 64.975739,198.970978 
	C64.975739,198.970978 64.967690,198.905273 64.490662,199.100296 
	C64.317169,199.385025 64.143677,199.669769 63.961449,199.973160 
	C63.961449,199.973160 63.944027,199.984589 63.321102,200.414490 
	C61.368393,204.681274 61.934280,208.662766 64.369308,212.619537 
	C67.132027,217.108749 69.696945,221.722198 72.255196,226.333054 
	C72.939262,227.565964 74.074921,229.345947 73.657806,230.262405 
	C70.994652,236.113739 75.069580,238.753494 78.273026,242.309845 
	C75.872795,241.587769 73.337730,240.712570 71.672615,238.994324 
	C69.429756,236.679886 67.857208,233.715881 66.003883,230.995071 
	C66.003883,230.995071 65.967926,231.001129 65.913277,230.271637 
	C62.235252,223.393127 58.459068,216.564087 54.949261,209.600784 
	C54.088207,207.892502 53.204880,205.335098 53.875107,203.877930 
	C55.824848,199.638885 58.556843,195.759628 61.506294,191.445709 
	C61.565071,190.860199 61.623848,190.274673 61.935043,189.287720 
	C62.175240,188.899490 62.415432,188.511261 63.017063,187.583969 
	C63.693378,186.089615 64.369690,184.595245 65.636978,182.752914 
	C69.044151,177.854233 71.857376,172.464813 77.653503,168.579468 
	C77.840317,165.313248 79.281616,161.327972 77.918648,158.950043 
	C75.895828,155.420883 70.966980,154.398544 67.403641,156.342148 
	C64.974297,157.667221 62.130791,161.687042 62.502956,164.018158 
	C63.452560,169.966095 60.876431,171.994797 55.474670,173.020370 
	C55.474670,173.020370 55.012032,173.149643 54.199398,173.038788 
	C53.066326,172.967087 51.743107,173.248398 50.834888,172.759232 
	C47.788990,171.118637 46.416904,172.932556 46.179695,175.310715 
	C46.072048,176.389969 47.961388,177.668427 49.801067,178.961334 
	C51.799496,179.085236 53.797920,179.209152 57.207367,179.420547 
	C55.155075,180.858185 54.437599,181.784515 53.673008,181.825195 
	C49.741734,182.034332 45.752254,181.686951 41.880569,182.229446 
	C40.194237,182.465729 38.740944,184.365143 37.181816,185.509232 
	C38.568012,186.317200 39.889023,187.638351 41.354214,187.824463 
	C44.252110,188.192566 47.229725,187.933105 50.134525,187.933105 
	C50.362457,197.078888 43.217690,196.264267 36.514301,197.863220 
	C38.260708,200.066528 39.297695,201.571030 40.539101,202.881927 
	C41.625950,204.029602 42.942463,204.959793 43.806683,206.656509 
	C42.693928,208.333405 43.420082,211.574722 39.208996,211.116776 
	C38.489792,211.167892 37.770584,211.219009 36.142822,211.094284 
	C33.053974,211.163589 29.965124,211.232895 26.106972,211.202667 
	C25.332191,211.171692 24.557409,211.140717 23.739344,210.842239 
	C23.739344,210.842239 23.400095,210.757828 23.400095,210.757828 
	C23.400095,210.757828 23.237070,211.088013 23.150391,211.057358 
	C23.150391,211.057358 23.124367,211.145538 22.574005,211.017761 
	C21.717970,212.039520 19.963203,213.411942 20.196089,214.008820 
	C20.657352,215.190994 22.183723,216.701370 23.326931,216.750641 
	C29.811724,217.030106 36.314922,216.840286 42.808784,216.967224 
	C46.810959,217.045456 49.995056,218.289703 49.863205,223.109589 
	C49.416252,223.428452 49.149082,223.611389 48.889996,223.805161 
	C46.961258,225.247559 43.461308,226.639282 43.410683,228.146225 
	C43.275776,232.161789 47.209160,231.016479 49.516857,230.895126 
	C55.228432,230.594727 58.118206,233.361252 59.465443,239.209824 
	C55.220745,239.469284 51.118824,239.518402 47.083939,240.063629 
	C45.417107,240.288849 43.894085,241.578323 42.305656,242.383759 
	C43.826035,243.562241 45.257874,245.588211 46.883625,245.758041 
	C51.498894,246.240219 56.202168,245.806137 60.852295,246.065033 
	C62.690971,246.167404 64.976234,246.630829 66.210152,247.814133 
	C72.822678,254.155319 80.435791,252.184692 88.491470,250.940445 
	C88.491470,250.940445 88.953255,251.032364 89.110992,251.476044 
	C89.420609,251.329453 89.730225,251.182861 89.999931,251.000137 
	C89.999931,251.000137 90.038033,251.039398 90.764099,251.007629 
	C92.850906,249.358093 94.937714,247.708557 97.520676,245.801422 
	C98.006950,245.562805 98.493233,245.324188 99.042046,245.903275 
	C98.185455,252.823196 102.217430,255.327667 107.790298,254.533844 
	C112.732300,253.829880 117.267822,250.272339 121.999313,247.999176 
	C121.999313,247.999176 121.976067,247.980667 122.694977,247.931488 
	C126.137596,241.957031 129.580231,235.982574 132.998917,229.999588 
	C132.998917,229.999588 133.012985,230.021454 133.626221,229.709000 
	C135.386703,226.814087 137.340576,224.014145 138.828064,220.985168 
	C139.598755,219.415787 141.564240,216.930618 136.799103,216.066986 
	C126.204872,216.137177 115.610634,216.207367 104.630814,216.238190 
	C104.343201,216.325027 104.202591,216.518524 103.799294,217.055634 
	C103.481659,217.207077 103.313545,217.458481 102.949387,218.444321 
	C101.505531,220.809204 100.130463,223.219528 98.604309,225.530045 
	C94.751457,231.363083 90.830605,237.151230 86.283485,243.039703 
	C85.847321,243.008148 85.411163,242.976593 84.790924,242.426346 
	C85.020813,241.513840 85.250710,240.601334 85.600327,239.681717 
	C85.600327,239.681717 85.615089,239.562683 86.129425,239.185242 
	C90.207123,235.796799 90.920502,231.293335 87.518990,227.487625 
	C84.215218,223.791260 80.488152,220.473221 76.862640,216.408783 
	C76.580246,215.940598 76.297852,215.472412 75.957626,214.279114 
	C72.265678,208.854919 71.497818,203.511322 76.186142,198.161606 
	C77.032822,197.195511 77.370293,195.798996 78.033653,194.653793 
	C81.676018,188.365723 85.346657,182.094040 89.233948,175.428589 
	C91.351372,183.088623 93.828918,185.712585 98.937172,186.068207 
	C98.937172,186.068207 98.863251,186.054108 99.071121,186.552277 
	C99.375244,186.722839 99.679375,186.893417 99.989494,187.003738 
	C99.989494,187.003738 99.938942,187.037048 100.036018,187.778809 
	C102.507774,195.832733 104.087471,197.041321 112.064346,197.008881 
	C119.659973,196.977997 127.257751,197.046387 134.849915,196.870224 
	C136.954376,196.821411 139.042236,196.057220 141.137711,195.621231 
	C141.536987,194.820419 141.936264,194.019608 142.335526,193.218796 
	C140.892746,192.459564 139.449966,191.700333 137.890472,190.487762 
	C137.890472,190.487762 137.743073,190.043442 137.770279,189.552734 
	C137.618027,189.227524 137.364151,189.039795 137.000000,189.000000 
z"/>
<path fill="#830EA5" opacity="1.000000" stroke="none" 
	d="
M76.015465,215.004227 
	C76.297852,215.472412 76.580246,215.940598 76.800201,216.975220 
	C78.300240,220.130432 79.251930,223.731201 81.542480,225.113678 
	C87.811234,228.897186 87.658798,233.799896 85.615089,239.562683 
	C85.615089,239.562683 85.600327,239.681717 85.097855,239.559906 
	C76.211853,238.104797 76.302399,238.096176 75.525116,229.933380 
	C75.362427,228.224945 74.467552,226.481735 73.557228,224.966537 
	C68.886505,217.192398 64.165535,209.462372 63.944027,199.984589 
	C63.944027,199.984589 63.961449,199.973160 64.160934,199.819122 
	C64.607727,199.447693 64.810150,199.194427 64.967690,198.905273 
	C64.967690,198.905273 64.975739,198.970978 65.271118,198.850922 
	C66.729431,197.605377 68.215263,196.669098 69.003517,195.324036 
	C74.611320,185.754913 79.874405,175.976181 85.739563,166.571213 
	C87.084290,164.414886 90.210167,162.492645 92.750824,162.136765 
	C98.481949,161.333954 104.471489,160.806534 110.144035,161.628754 
	C115.089233,162.345520 120.514580,163.273468 123.619865,168.669479 
	C126.318947,173.359634 129.828430,177.583420 132.979782,182.013306 
	C132.979782,182.013306 133.000336,181.999664 133.002106,182.380127 
	C134.339035,184.837021 135.674194,186.913452 137.009338,188.989868 
	C137.009338,188.989868 137.000000,189.000000 137.087418,189.195114 
	C137.324982,189.642120 137.514389,189.859848 137.743073,190.043442 
	C137.743073,190.043442 137.890472,190.487762 137.872375,191.078125 
	C136.074722,192.716492 134.362167,194.510284 132.503433,194.677322 
	C126.069778,195.255447 119.564003,195.025391 113.128441,195.590149 
	C109.546661,195.904480 107.098434,194.933395 104.971466,192.118988 
	C103.546822,190.233902 101.633568,188.718094 99.938950,187.037048 
	C99.938942,187.037048 99.989494,187.003738 99.824768,186.839325 
	C99.394440,186.467987 99.128845,186.261047 98.863251,186.054108 
	C98.863251,186.054108 98.937172,186.068207 98.794792,185.785522 
	C95.117691,182.457138 91.977119,179.217422 92.979004,173.972229 
	C92.993912,173.998367 92.940498,173.970718 93.304291,173.876129 
	C102.136482,170.784164 103.521935,171.779037 105.263702,180.873245 
	C105.622589,182.747086 107.722221,184.287506 109.009003,185.990692 
	C108.998482,185.999756 109.013100,185.976364 109.136749,186.185211 
	C109.462082,186.655411 109.711578,186.857819 110.334251,187.052933 
	C111.092110,187.175766 111.524597,187.246948 112.243088,187.554794 
	C116.106590,188.111435 119.691216,188.698654 123.257683,188.603729 
	C124.475327,188.571335 126.343842,187.028091 126.694466,185.820709 
	C127.412170,183.349304 121.967735,175.492889 119.013000,173.993317 
	C119.001221,174.001938 119.016182,173.976852 118.971985,173.639374 
	C117.901260,169.372864 114.867989,168.261261 111.335419,168.134995 
	C107.019592,167.980713 102.689781,168.185059 98.376762,167.993088 
	C93.340775,167.768951 89.801582,169.805725 87.380554,174.201279 
	C82.576004,182.924316 77.680031,191.597305 72.779144,200.266861 
	C68.952263,207.036499 69.604317,210.126205 76.015465,215.004227 
z"/>
<path fill="#870BAA" opacity="1.000000" stroke="none" 
	d="
M84.974998,242.945038 
	C85.411163,242.976593 85.847321,243.008148 86.906166,243.132812 
	C92.136536,243.460968 93.932602,240.424759 95.821732,236.827805 
	C98.861755,231.039505 102.502258,225.566559 106.324638,219.955566 
	C116.216660,219.971634 125.673111,219.992508 135.099014,220.407043 
	C134.383301,223.874283 133.698135,226.947876 133.012985,230.021454 
	C133.012985,230.021454 132.998917,229.999588 132.708893,230.146667 
	C128.937943,236.189377 125.457008,242.085022 121.976067,247.980667 
	C121.976067,247.980667 121.999313,247.999176 121.600212,248.003571 
	C118.079010,249.069366 114.880943,249.950546 111.849922,251.228073 
	C104.576149,254.293808 101.984009,252.913193 100.991165,244.754440 
	C104.155693,241.227173 107.624001,241.708908 111.335342,242.771469 
	C114.548500,243.691406 117.989777,244.475418 120.122131,240.718094 
	C122.066818,237.291443 123.785164,233.737152 125.674751,230.278198 
	C127.458176,227.013580 126.501099,224.505051 122.859123,224.250366 
	C118.569733,223.950424 114.197166,223.922379 109.943863,224.448715 
	C108.085663,224.678680 105.746155,226.180756 104.813553,227.792679 
	C101.593674,233.357910 98.897110,239.225891 95.749138,245.194092 
	C93.677330,247.286194 91.857674,249.162796 90.038025,251.039398 
	C90.038033,251.039398 89.999931,251.000137 89.748260,251.006744 
	C89.315475,251.019684 89.134369,251.026031 88.953255,251.032364 
	C88.953255,251.032364 88.491470,250.940445 87.882591,250.762817 
	C85.153328,250.417480 83.015259,249.989471 80.915947,250.132050 
	C75.185898,250.521210 70.161102,249.108597 65.971252,244.695923 
	C65.637360,243.228806 65.322586,242.114868 64.951096,240.686829 
	C64.596336,239.579254 64.298302,238.785797 63.853790,237.742538 
	C63.126400,236.999985 62.545483,236.507248 61.728935,235.776733 
	C59.761166,232.071884 54.155376,229.504852 59.238827,224.710968 
	C61.684841,226.931641 63.826382,228.966385 65.967926,231.001129 
	C65.967926,231.001129 66.003883,230.995071 66.031067,231.382187 
	C67.826744,235.305923 69.189819,239.148056 71.530182,242.253723 
	C72.749222,243.871414 75.670425,244.847961 77.860870,244.917709 
	C80.208923,244.992462 82.601723,243.662140 84.974998,242.945038 
z"/>
<path fill="#70178A" opacity="1.000000" stroke="none" 
	d="
M65.940598,230.636383 
	C63.826382,228.966385 61.684841,226.931641 59.250595,224.706360 
	C58.957893,224.515839 58.984867,224.505493 59.045731,224.165405 
	C57.786034,221.098663 56.417179,218.394073 55.157776,215.639450 
	C53.746803,212.553268 52.394245,209.438644 51.093704,206.304276 
	C50.172192,204.083344 49.581825,199.995209 48.493736,199.873688 
	C43.870003,199.357330 46.403320,203.958099 44.820351,205.994202 
	C44.599396,205.992630 44.157520,205.986053 44.157520,205.986053 
	C42.942463,204.959793 41.625950,204.029602 40.539101,202.881927 
	C39.297695,201.571030 38.260708,200.066528 36.514301,197.863220 
	C43.217690,196.264267 50.362457,197.078888 50.134525,187.933105 
	C47.229725,187.933105 44.252110,188.192566 41.354214,187.824463 
	C39.889023,187.638351 38.568012,186.317200 37.181816,185.509232 
	C38.740944,184.365143 40.194237,182.465729 41.880569,182.229446 
	C45.752254,181.686951 49.741734,182.034332 53.673008,181.825195 
	C54.437599,181.784515 55.155075,180.858185 57.207367,179.420547 
	C53.797920,179.209152 51.799496,179.085236 49.282223,178.608322 
	C49.587040,177.178284 50.253868,175.907883 51.277615,175.077545 
	C52.342869,174.213531 53.752808,173.774506 55.012032,173.149643 
	C55.012032,173.149643 55.474670,173.020370 56.069412,173.075394 
	C59.009319,173.737030 61.354485,174.343658 63.494396,175.153107 
	C62.411045,176.321259 61.532948,177.286560 60.085297,178.877975 
	C62.387325,179.555405 63.719704,179.947495 65.052780,180.684784 
	C65.050987,181.720291 65.048500,182.410583 65.046005,183.100891 
	C64.369690,184.595245 63.693378,186.089615 62.632626,187.587494 
	C60.576923,187.009430 58.462372,185.509995 57.334988,186.054489 
	C55.497620,186.941895 54.057251,189.019943 52.966202,190.896133 
	C52.550251,191.611404 53.559315,193.155365 53.918945,194.321655 
	C55.009651,193.819351 56.201149,193.460266 57.167034,192.780579 
	C58.557411,191.802185 59.783714,190.590622 61.064781,189.856079 
	C61.027023,190.735474 61.004532,191.237366 60.982037,191.739273 
	C58.556843,195.759628 55.824848,199.638885 53.875107,203.877930 
	C53.204880,205.335098 54.088207,207.892502 54.949261,209.600784 
	C58.459068,216.564087 62.235252,223.393127 65.940598,230.636383 
z"/>
<path fill="#681781" opacity="1.000000" stroke="none" 
	d="
M43.982101,206.321289 
	C44.157520,205.986053 44.599396,205.992630 44.807442,206.346817 
	C45.000423,207.170944 44.985355,207.640900 45.051098,208.342682 
	C45.339462,209.015793 45.547016,209.457062 46.017197,210.138947 
	C47.119267,211.559265 48.274376,212.626373 48.742401,213.938553 
	C50.569050,219.059860 54.172207,222.340088 58.984867,224.505493 
	C58.984867,224.505493 58.957893,224.515839 58.946125,224.520447 
	C54.155376,229.504852 59.761166,232.071884 61.891853,236.013351 
	C62.860359,236.989304 63.430309,237.490829 64.000259,237.992371 
	C64.298302,238.785797 64.596336,239.579254 64.519684,240.673721 
	C58.627834,241.388168 53.110683,241.801575 47.593529,242.214996 
	C53.363281,245.812805 59.806564,244.543823 65.990387,245.049133 
	C70.161102,249.108597 75.185898,250.521210 80.915947,250.132050 
	C83.015259,249.989471 85.153328,250.417480 87.647179,250.760254 
	C80.435791,252.184692 72.822678,254.155319 66.210152,247.814133 
	C64.976234,246.630829 62.690971,246.167404 60.852295,246.065033 
	C56.202168,245.806137 51.498894,246.240219 46.883625,245.758041 
	C45.257874,245.588211 43.826035,243.562241 42.305656,242.383759 
	C43.894085,241.578323 45.417107,240.288849 47.083939,240.063629 
	C51.118824,239.518402 55.220745,239.469284 59.465443,239.209824 
	C58.118206,233.361252 55.228432,230.594727 49.516857,230.895126 
	C47.209160,231.016479 43.275776,232.161789 43.410683,228.146225 
	C43.461308,226.639282 46.961258,225.247559 48.889996,223.805161 
	C49.149082,223.611389 49.416252,223.428452 49.863205,223.109589 
	C49.995056,218.289703 46.810959,217.045456 42.808784,216.967224 
	C36.314922,216.840286 29.811724,217.030106 23.326931,216.750641 
	C22.183723,216.701370 20.657352,215.190994 20.196089,214.008820 
	C19.963203,213.411942 21.717970,212.039520 22.893181,211.455292 
	C24.481445,212.897995 25.693619,214.672211 27.029778,214.771103 
	C31.993454,215.138443 36.999153,215.019379 41.986107,214.925446 
	C43.044548,214.905502 44.090492,214.222046 46.241714,213.449356 
	C43.262493,212.399551 41.592358,211.811050 39.922218,211.222534 
	C43.420082,211.574722 42.693928,208.333405 43.982101,206.321289 
z"/>
<path fill="#70178A" opacity="1.000000" stroke="none" 
	d="
M92.964096,173.946091 
	C91.977119,179.217422 95.117691,182.457138 98.786751,185.822296 
	C93.828918,185.712585 91.351372,183.088623 89.233948,175.428589 
	C85.346657,182.094040 81.676018,188.365723 78.033653,194.653793 
	C77.370293,195.798996 77.032822,197.195511 76.186142,198.161606 
	C71.497818,203.511322 72.265678,208.854919 75.986542,214.641663 
	C69.604317,210.126205 68.952263,207.036499 72.779144,200.266861 
	C77.680031,191.597305 82.576004,182.924316 87.380554,174.201279 
	C89.801582,169.805725 93.340775,167.768951 98.376762,167.993088 
	C102.689781,168.185059 107.019592,167.980713 111.335419,168.134995 
	C114.867989,168.261261 117.901260,169.372864 118.653488,173.518814 
	C114.811714,168.637390 109.776215,169.482758 104.715370,170.351776 
	C106.153030,175.572418 107.586273,180.777008 109.019516,185.981613 
	C107.722221,184.287506 105.622589,182.747086 105.263702,180.873245 
	C103.521935,171.779037 102.136482,170.784164 93.211777,173.585129 
	C91.838852,173.615082 90.922211,173.841446 90.005577,174.067795 
	C90.190514,174.520966 90.375450,174.974136 90.560387,175.427292 
	C91.361626,174.933563 92.162865,174.439835 92.964096,173.946091 
z"/>
<path fill="#70178A" opacity="1.000000" stroke="none" 
	d="
M132.977020,181.642853 
	C129.828430,177.583420 126.318947,173.359634 123.619865,168.669479 
	C120.514580,163.273468 115.089233,162.345520 110.144035,161.628754 
	C104.471489,160.806534 98.481949,161.333954 92.750824,162.136765 
	C90.210167,162.492645 87.084290,164.414886 85.739563,166.571213 
	C79.874405,175.976181 74.611320,185.754913 69.003517,195.324036 
	C68.215263,196.669098 66.729431,197.605377 65.238907,198.843277 
	C65.980148,196.661942 66.889542,194.276611 68.145454,192.090363 
	C73.519310,182.735764 79.144447,173.522095 84.353210,164.077927 
	C86.175453,160.773972 88.544533,159.869431 91.997620,159.946152 
	C98.800652,160.097305 105.619225,160.235397 112.412025,159.937698 
	C117.533195,159.713242 121.476143,161.419785 124.090546,165.684891 
	C127.214378,170.781067 130.026901,176.068069 132.977020,181.642853 
z"/>
<path fill="#70178A" opacity="1.000000" stroke="none" 
	d="
M96.001289,244.978592 
	C98.897110,239.225891 101.593674,233.357910 104.813553,227.792679 
	C105.746155,226.180756 108.085663,224.678680 109.943863,224.448715 
	C114.197166,223.922379 118.569733,223.950424 122.859123,224.250366 
	C126.501099,224.505051 127.458176,227.013580 125.674751,230.278198 
	C123.785164,233.737152 122.066818,237.291443 120.122131,240.718094 
	C117.989777,244.475418 114.548500,243.691406 111.335342,242.771469 
	C107.624001,241.708908 104.155693,241.227173 100.698273,244.757462 
	C99.769264,245.060623 99.374382,245.073090 98.979507,245.085571 
	C98.493233,245.324188 98.006950,245.562805 97.106514,245.746033 
	C96.464523,245.450836 96.234169,245.213486 96.001289,244.978592 
M110.131653,225.557785 
	C107.456314,230.083740 104.780968,234.609695 102.105621,239.135651 
	C102.466881,239.488510 102.828133,239.841370 103.189384,240.194214 
	C106.662430,236.057556 109.485855,238.804291 112.525803,240.476227 
	C113.572716,241.052017 115.841316,241.506958 116.096527,241.101364 
	C119.105164,236.319992 121.837288,231.364624 124.845901,226.098511 
	C119.412605,225.851654 115.157188,225.658325 110.131653,225.557785 
z"/>
<path fill="#70178A" opacity="1.000000" stroke="none" 
	d="
M84.882965,242.685699 
	C82.601723,243.662140 80.208923,244.992462 77.860870,244.917709 
	C75.670425,244.847961 72.749222,243.871414 71.530182,242.253723 
	C69.189819,239.148056 67.826744,235.305923 66.027618,231.399979 
	C67.857208,233.715881 69.429756,236.679886 71.672615,238.994324 
	C73.337730,240.712570 75.872795,241.587769 78.273026,242.309845 
	C75.069580,238.753494 70.994652,236.113739 73.657806,230.262405 
	C74.074921,229.345947 72.939262,227.565964 72.255196,226.333054 
	C69.696945,221.722198 67.132027,217.108749 64.369308,212.619537 
	C61.934280,208.662766 61.368393,204.681274 63.632565,200.199539 
	C64.165535,209.462372 68.886505,217.192398 73.557228,224.966537 
	C74.467552,226.481735 75.362427,228.224945 75.525116,229.933380 
	C76.302399,238.096176 76.211853,238.104797 85.037994,239.563446 
	C85.250710,240.601334 85.020813,241.513840 84.882965,242.685699 
z"/>
<path fill="#681781" opacity="1.000000" stroke="none" 
	d="
M63.699654,174.950272 
	C61.354485,174.343658 59.009319,173.737030 56.308060,173.048309 
	C60.876431,171.994797 63.452560,169.966095 62.502956,164.018158 
	C62.130791,161.687042 64.974297,157.667221 67.403641,156.342148 
	C70.966980,154.398544 75.895828,155.420883 77.918648,158.950043 
	C79.281616,161.327972 77.840317,165.313248 77.189232,168.653534 
	C76.724960,168.727600 76.449860,168.455109 76.562088,168.085876 
	C77.076996,161.423676 75.627312,158.518707 71.975174,158.300201 
	C67.673393,158.042801 65.100601,161.394241 65.120880,167.340866 
	C65.124809,168.492416 65.706306,169.709808 65.474052,170.777802 
	C65.158539,172.228638 64.316101,173.564880 63.699654,174.950272 
z"/>
<path fill="#830EA5" opacity="1.000000" stroke="none" 
	d="
M135.129562,220.013397 
	C125.673111,219.992508 116.216660,219.971634 106.196106,219.695709 
	C104.852997,218.897079 104.073975,218.353470 103.294952,217.809875 
	C103.313545,217.458481 103.481659,217.207077 104.165894,216.898132 
	C104.742455,216.637177 104.903755,216.482819 105.016403,216.277557 
	C115.610634,216.207367 126.204872,216.137177 137.160553,216.407410 
	C136.724518,217.836349 135.927032,218.924866 135.129562,220.013397 
z"/>
<path fill="#70178A" opacity="1.000000" stroke="none" 
	d="
M99.987488,187.407928 
	C101.633568,188.718094 103.546822,190.233902 104.971466,192.118988 
	C107.098434,194.933395 109.546661,195.904480 113.128441,195.590149 
	C119.564003,195.025391 126.069778,195.255447 132.503433,194.677322 
	C134.362167,194.510284 136.074722,192.716492 137.930740,191.304810 
	C139.449966,191.700333 140.892746,192.459564 142.335526,193.218796 
	C141.936264,194.019608 141.536987,194.820419 141.137711,195.621231 
	C139.042236,196.057220 136.954376,196.821411 134.849915,196.870224 
	C127.257751,197.046387 119.659973,196.977997 112.064346,197.008881 
	C104.087471,197.041321 102.507774,195.832733 99.987488,187.407928 
z"/>
<path fill="#70178A" opacity="1.000000" stroke="none" 
	d="
M103.122177,218.127090 
	C104.073975,218.353470 104.852997,218.897079 105.760544,219.700531 
	C102.502258,225.566559 98.861755,231.039505 95.821732,236.827805 
	C93.932602,240.424759 92.136536,243.460968 87.232918,243.091644 
	C90.830605,237.151230 94.751457,231.363083 98.604309,225.530045 
	C100.130463,223.219528 101.505531,220.809204 103.122177,218.127090 
z"/>
<path fill="#830EA5" opacity="1.000000" stroke="none" 
	d="
M39.565605,211.169647 
	C41.592358,211.811050 43.262493,212.399551 46.241714,213.449356 
	C44.090492,214.222046 43.044548,214.905502 41.986107,214.925446 
	C36.999153,215.019379 31.993454,215.138443 27.029778,214.771103 
	C25.693619,214.672211 24.481445,212.897995 23.168362,211.519180 
	C23.124367,211.145538 23.150391,211.057358 23.328415,211.114899 
	C23.506441,211.172440 23.782629,211.109741 23.782629,211.109741 
	C24.557409,211.140717 25.332191,211.171692 26.714264,211.496613 
	C30.564829,211.617081 33.808105,211.443588 37.051380,211.270111 
	C37.770584,211.219009 38.489792,211.167892 39.565605,211.169647 
z"/>
<path fill="#681781" opacity="1.000000" stroke="none" 
	d="
M99.010773,245.494415 
	C99.374382,245.073090 99.769264,245.060623 100.457031,245.045135 
	C101.984009,252.913193 104.576149,254.293808 111.849922,251.228073 
	C114.880943,249.950546 118.079010,249.069366 121.591949,247.991226 
	C117.267822,250.272339 112.732300,253.829880 107.790298,254.533844 
	C102.217430,255.327667 98.185455,252.823196 99.010773,245.494415 
z"/>
<path fill="#870BAA" opacity="1.000000" stroke="none" 
	d="
M61.080040,189.478577 
	C59.783714,190.590622 58.557411,191.802185 57.167034,192.780579 
	C56.201149,193.460266 55.009651,193.819351 53.918945,194.321655 
	C53.559315,193.155365 52.550251,191.611404 52.966202,190.896133 
	C54.057251,189.019943 55.497620,186.941895 57.334988,186.054489 
	C58.462372,185.509995 60.576923,187.009430 62.451904,187.857025 
	C62.415432,188.511261 62.175240,188.899490 61.664612,189.418961 
	C61.394184,189.550201 61.080044,189.478577 61.080040,189.478577 
z"/>
<path fill="#70178A" opacity="1.000000" stroke="none" 
	d="
M85.872253,239.373962 
	C87.658798,233.799896 87.811234,228.897186 81.542480,225.113678 
	C79.251930,223.731201 78.300240,220.130432 76.842361,217.265350 
	C80.488152,220.473221 84.215218,223.791260 87.518990,227.487625 
	C90.920502,231.293335 90.207123,235.796799 85.872253,239.373962 
z"/>
<path fill="#681781" opacity="1.000000" stroke="none" 
	d="
M122.335526,247.956085 
	C125.457008,242.085022 128.937943,236.189377 132.720856,230.150925 
	C129.580231,235.982574 126.137596,241.957031 122.335526,247.956085 
z"/>
<path fill="#681781" opacity="1.000000" stroke="none" 
	d="
M65.341492,182.926910 
	C65.048500,182.410583 65.050987,181.720291 65.235779,180.408707 
	C67.394722,174.354477 70.433487,169.955475 76.449860,168.455109 
	C76.449860,168.455109 76.724960,168.727600 76.862503,168.863831 
	C71.857376,172.464813 69.044151,177.854233 65.341492,182.926910 
z"/>
<path fill="#681781" opacity="1.000000" stroke="none" 
	d="
M135.099014,220.407043 
	C135.927032,218.924866 136.724518,217.836349 137.605591,216.472595 
	C141.564240,216.930618 139.598755,219.415787 138.828064,220.985168 
	C137.340576,224.014145 135.386703,226.814087 133.319611,229.865234 
	C133.698135,226.947876 134.383301,223.874283 135.099014,220.407043 
z"/>
<path fill="#681781" opacity="1.000000" stroke="none" 
	d="
M54.605713,173.094208 
	C53.752808,173.774506 52.342869,174.213531 51.277615,175.077545 
	C50.253868,175.907883 49.587040,177.178284 48.854107,178.555908 
	C47.961388,177.668427 46.072048,176.389969 46.179695,175.310715 
	C46.416904,172.932556 47.788990,171.118637 50.834888,172.759232 
	C51.743107,173.248398 53.066326,172.967087 54.605713,173.094208 
z"/>
<path fill="#681781" opacity="1.000000" stroke="none" 
	d="
M95.749138,245.194092 
	C96.234169,245.213486 96.464523,245.450836 96.858437,245.874847 
	C94.937714,247.708557 92.850906,249.358093 90.401062,251.023499 
	C91.857674,249.162796 93.677330,247.286194 95.749138,245.194092 
z"/>
<path fill="#681781" opacity="1.000000" stroke="none" 
	d="
M36.597099,211.182190 
	C33.808105,211.443588 30.564829,211.617081 27.098915,211.546387 
	C29.965124,211.232895 33.053974,211.163589 36.597099,211.182190 
z"/>
<path fill="#70178A" opacity="1.000000" stroke="none" 
	d="
M136.980804,188.639740 
	C135.674194,186.913452 134.339035,184.837021 132.993774,182.389389 
	C134.306549,184.108658 135.629410,186.199127 136.980804,188.639740 
z"/>
<path fill="#681781" opacity="1.000000" stroke="none" 
	d="
M61.064781,189.856079 
	C61.080044,189.478577 61.394184,189.550201 61.538406,189.619690 
	C61.623848,190.274673 61.565071,190.860199 61.244164,191.592499 
	C61.004532,191.237366 61.027023,190.735474 61.064781,189.856079 
z"/>
<path fill="#681781" opacity="1.000000" stroke="none" 
	d="
M89.032120,251.254211 
	C89.134369,251.026031 89.315475,251.019684 89.768219,251.024811 
	C89.730225,251.182861 89.420609,251.329453 89.032120,251.254211 
z"/>
<path fill="#70178A" opacity="1.000000" stroke="none" 
	d="
M104.823608,216.257874 
	C104.903755,216.482819 104.742455,216.637177 104.370743,216.779648 
	C104.202591,216.518524 104.343201,216.325027 104.823608,216.257874 
z"/>
<path fill="#681781" opacity="1.000000" stroke="none" 
	d="
M23.760986,210.975983 
	C23.782629,211.109741 23.506441,211.172440 23.371756,211.130219 
	C23.237070,211.088013 23.400095,210.757828 23.400095,210.757828 
	C23.400095,210.757828 23.739344,210.842239 23.760986,210.975983 
z"/>
<path fill="#70178A" opacity="1.000000" stroke="none" 
	d="
M64.729172,199.002777 
	C64.810150,199.194427 64.607727,199.447693 64.165298,199.809799 
	C64.143677,199.669769 64.317169,199.385025 64.729172,199.002777 
z"/>
<path fill="#70178A" opacity="1.000000" stroke="none" 
	d="
M98.967186,186.303192 
	C99.128845,186.261047 99.394440,186.467987 99.821770,186.869446 
	C99.679375,186.893417 99.375244,186.722839 98.967186,186.303192 
z"/>
<path fill="#70178A" opacity="1.000000" stroke="none" 
	d="
M137.756683,189.798096 
	C137.514389,189.859848 137.324982,189.642120 137.091751,189.189896 
	C137.364151,189.039795 137.618027,189.227524 137.756683,189.798096 
z"/>
<path fill="#000000" opacity="1.000000" stroke="none" 
	d="
M109.009003,185.990692 
	C107.586273,180.777008 106.153030,175.572418 104.715370,170.351776 
	C109.776215,169.482758 114.811714,168.637390 118.697685,173.856293 
	C119.016182,173.976852 119.001221,174.001938 119.053543,174.350998 
	C121.019455,178.408295 122.933029,182.116531 125.296074,186.695786 
	C120.108971,186.937805 116.033028,187.127975 111.957085,187.318146 
	C111.524597,187.246948 111.092110,187.175766 110.243774,186.818359 
	C109.556320,186.346893 109.284714,186.161621 109.013100,185.976364 
	C109.013100,185.976364 108.998482,185.999756 109.009003,185.990692 
z"/>
<path fill="#70178A" opacity="1.000000" stroke="none" 
	d="
M112.243088,187.554810 
	C116.033028,187.127975 120.108971,186.937805 125.296074,186.695786 
	C122.933029,182.116531 121.019455,178.408295 119.065323,174.342377 
	C121.967735,175.492889 127.412170,183.349304 126.694466,185.820709 
	C126.343842,187.028091 124.475327,188.571335 123.257683,188.603729 
	C119.691216,188.698654 116.106590,188.111435 112.243088,187.554810 
z"/>
<path fill="#70178A" opacity="1.000000" stroke="none" 
	d="
M109.136749,186.185211 
	C109.284714,186.161621 109.556320,186.346893 109.918411,186.766724 
	C109.711578,186.857819 109.462082,186.655411 109.136749,186.185211 
z"/>
<path fill="#830EA5" opacity="1.000000" stroke="none" 
	d="
M65.971252,244.695923 
	C59.806564,244.543823 53.363281,245.812805 47.593529,242.214996 
	C53.110683,241.801575 58.627834,241.388168 64.576401,240.987854 
	C65.322586,242.114868 65.637360,243.228806 65.971252,244.695923 
z"/>
<path fill="#830EA5" opacity="1.000000" stroke="none" 
	d="
M63.853790,237.742554 
	C63.430309,237.490829 62.860359,236.989304 62.127487,236.251160 
	C62.545483,236.507248 63.126400,236.999985 63.853790,237.742554 
z"/>
<path fill="#870BAA" opacity="1.000000" stroke="none" 
	d="
M76.562088,168.085876 
	C70.433487,169.955475 67.394722,174.354477 65.235077,180.063507 
	C63.719704,179.947495 62.387325,179.555405 60.085297,178.877975 
	C61.532948,177.286560 62.411045,176.321259 63.494400,175.153107 
	C64.316101,173.564880 65.158539,172.228638 65.474052,170.777802 
	C65.706306,169.709808 65.124809,168.492416 65.120880,167.340866 
	C65.100601,161.394241 67.673393,158.042801 71.975174,158.300201 
	C75.627312,158.518707 77.076996,161.423676 76.562088,168.085876 
z"/>
<path fill="#870BAA" opacity="1.000000" stroke="none" 
	d="
M44.970287,208.110840 
	C44.985355,207.640900 45.000423,207.170944 45.028400,206.348389 
	C46.403320,203.958099 43.870003,199.357330 48.493736,199.873688 
	C49.581825,199.995209 50.172192,204.083344 51.093704,206.304276 
	C52.394245,209.438644 53.746803,212.553268 55.157776,215.639450 
	C56.417179,218.394073 57.786034,221.098663 59.045731,224.165405 
	C54.172207,222.340088 50.569050,219.059860 48.742401,213.938553 
	C48.274376,212.626373 47.119267,211.559265 45.969078,209.899139 
	C45.428986,208.982742 45.199638,208.546799 44.970287,208.110840 
z"/>
<path fill="#70178A" opacity="1.000000" stroke="none" 
	d="
M45.051098,208.342682 
	C45.199638,208.546799 45.428986,208.982742 45.706455,209.658508 
	C45.547016,209.457062 45.339462,209.015793 45.051098,208.342682 
z"/>
<path fill="#000000" opacity="1.000000" stroke="none" 
	d="
M92.979004,173.972229 
	C92.162865,174.439835 91.361626,174.933563 90.560387,175.427292 
	C90.375450,174.974136 90.190514,174.520966 90.005577,174.067795 
	C90.922211,173.841446 91.838852,173.615082 92.847992,173.679718 
	C92.940498,173.970718 92.993912,173.998367 92.979004,173.972229 
z"/>
<path fill="#000000" opacity="1.000000" stroke="none" 
	d="
M110.516708,225.511383 
	C115.157188,225.658325 119.412605,225.851654 124.845901,226.098511 
	C121.837288,231.364624 119.105164,236.319992 116.096527,241.101364 
	C115.841316,241.506958 113.572716,241.052017 112.525803,240.476227 
	C109.485855,238.804291 106.662430,236.057556 103.189384,240.194214 
	C102.828133,239.841370 102.466881,239.488510 102.105621,239.135651 
	C104.780968,234.609695 107.456314,230.083740 110.516708,225.511383 
z"/>
</svg>